# xmcd
# 
# Track frame offsets:
#     150
#     4860
#     7867
#     8227
#     8912
#     18460
#     19737
#     30142
#     41175
#     52982
#     66350
#     67722
#     71072
#     76345
#     92285
#     106767
#     126047
#     139967
#     142495
#     156460
#     170615
#     180035
#     184847
#     188417
#     197077
#     201990
#     210532
#     215462
#     223440
#     231632
#     232387
#     242637
#     243905
#     249085
#     251802
#     260070
#     260637
#     263930
#     265972
#     269322
#     273075
#     276010
#     279095
#     281612
#     284877
#     288235
#     291965
#     294320
#     298352
#     301110
#     303602
#     306977
#     310210
#     318040
#     320635
#     324705
# 
# Disc length: 4634
# 
# Revision: 2
# Processed by: cddbd v1.5.2PL0 Copyright (c) Steve Scherf et al.
# Submitted via: fre:ac v1.0.31
# 
DISCID=5c121838
DTITLE=新世界楽曲雑技団 - サムライスピリッツ 天草降臨
DYEAR=1996
DGENRE=Soundtrack
TTITLE0=天草降臨
TTITLE1=十七士
TTITLE2=島原
TTITLE3=いざ尋常に
TTITLE4=修羅道
TTITLE5=勝負あり
TTITLE6=川
TTITLE7=鮪の化身
TTITLE8=自然の宴
TTITLE9=心の鏡
TTITLE10=瞑想
TTITLE11=瞑想
TTITLE12=瞑想
TTITLE13=鬼唄
TTITLE14=続々舶来女
TTITLE15=焔
TTITLE16=水の化身
TTITLE17=弐
TTITLE18=動なる静
TTITLE19=静なる動
TTITLE20=桜
TTITLE21=三ノ宮
TTITLE22=竹林
TTITLE23=犬
TTITLE24=炎獄
TTITLE25=古寺
TTITLE26=仁王
TTITLE27=蒸気
TTITLE28=不出
TTITLE29=参
TTITLE30=好敵手
TTITLE31=再演の所望
TTITLE32=眺望
TTITLE33=眺望
TTITLE34=勧進元
TTITLE35=終演
TTITLE36=覇王丸
TTITLE37=橘右京
TTITLE38=ガルフォード
TTITLE39=ナコルル
TTITLE40=リムルル
TTITLE41=牙神幻十郎
TTITLE42=シャルロット
TTITLE43=風間火月
TTITLE44=風間蒼月
TTITLE45=柳生十兵衛
TTITLE46=服部半蔵
TTITLE47=千両狂死郎
TTITLE48=タムタム
TTITLE49=首斬り破沙羅
TTITLE50=花諷院骸羅
TTITLE51=緋雨閑丸
TTITLE52=天草四郎時貞
TTITLE53=？
TTITLE54=判定
TTITLE55=S.E.コレクション
EXTD=
EXTT0=
EXTT1=
EXTT2=
EXTT3=
EXTT4=
EXTT5=
EXTT6=
EXTT7=
EXTT8=
EXTT9=
EXTT10=
EXTT11=
EXTT12=
EXTT13=
EXTT14=
EXTT15=
EXTT16=
EXTT17=
EXTT18=
EXTT19=
EXTT20=
EXTT21=
EXTT22=
EXTT23=
EXTT24=
EXTT25=
EXTT26=
EXTT27=
EXTT28=
EXTT29=
EXTT30=
EXTT31=
EXTT32=
EXTT33=
EXTT34=
EXTT35=
EXTT36=
EXTT37=
EXTT38=
EXTT39=
EXTT40=
EXTT41=
EXTT42=
EXTT43=
EXTT44=
EXTT45=
EXTT46=
EXTT47=
EXTT48=
EXTT49=
EXTT50=
EXTT51=
EXTT52=
EXTT53=
EXTT54=
EXTT55=
PLAYORDER=
